<?xml version="1.0" encoding="UTF-8"?>
<svg id="Layer_2" xmlns="http://www.w3.org/2000/svg" viewBox="0 0 117.31 130.09">
  <defs>
    <style>
      .cls-1 {
        fill: #3297c4;
      }

      .cls-2 {
        fill: #2c333e;
      }

      .cls-3 {
        fill: #42454e;
      }

      .cls-4 {
        fill: #c69c6d;
      }

      .cls-5 {
        fill: #4d787a;
      }

      .cls-6 {
        fill: #4c4b4f;
      }

      .cls-7 {
        fill: #92dae8;
      }

      .cls-8 {
        fill: #2b333c;
      }

      .cls-9 {
        fill: #aee4e9;
      }

      .cls-10 {
        fill: #2591c2;
      }
    </style>
  </defs>
  <g id="Layer_1-2" data-name="Layer_1">
    <g>
      <path class="cls-6" d="M86.62,5.01c-2.29-1.25-4.76-1.98-7.25-2.72C74.27.77,69.06.05,63.78.03c-13.46-.05-26.93-.02-40.39,0-1.55,0-3.1,0-4.65,0C11.47,7.3,7.3,11.48.04,18.76l-.04,106.4c0,1.16.06,2.31.09,3.47,1.08.34,1.04-.62,1.22-1.16,1.91-5.59,3.9-11.16,5.79-16.76,2.31-6.85,4.74-13.66,7.15-20.47,3.18-9,6.32-18.01,9.46-27.02.33-1.08.89-2.07,1.26-3.13l.06-.28c.08-.76.05-1.52.05-2.28,0-10.35,0-20.7,0-31.05,0-1.49.1-1.57,1.55-1.59.32,0,.64,0,.96,0,11.83,0,23.65,0,35.48,0,1.44,0,2.87.05,4.3.24,5.27.68,9.68,2.88,12.95,7.16.31.41.6.86,1.14,1.02.91.09,1.02-.73,1.3-1.31.18-.37.37-.74.48-1.14,2.02-7.17,3.05-14.48,3.66-21.86.11-1.32.35-2.7-.28-4Z"/>
      <path class="cls-2" d="M23.51,63.13c2.93,2.06,5.87,4.1,8.79,6.19,5.61,4.01,11.19,8.05,16.8,12.05,6.13,4.37,12.29,8.68,18.42,13.04,3.33,2.37,6.62,4.81,9.95,7.18,3.92,2.8,7.86,5.56,11.78,8.36,3.17,2.26,6.32,4.57,9.5,6.83,4.76,3.39,9.54,6.77,14.3,10.15,1.45.8,2.74,1.81,4.05,2.82l.03.03c-.01.08,0,.17,0,.25-5.79.01-11.59.03-17.38.04-4.24,0-8.47-.01-12.71.03-.8,0-1.26-.25-1.75-.91-5.16-6.95-10.39-13.85-15.56-20.8-5.72-7.68-11.4-15.38-17.06-23.1-.7-.96-1.41-1.37-2.63-1.36-8.11.06-16.23.02-24.34.02-.27,0-.54.03-.81.05-.24.5-.13.99-.13,1.46,0,14.35,0,28.7-.01,43.05,0,.44-.03.88-.05,1.31-.07.08-.15.14-.23.2-8.07,0-16.15,0-24.22,0-.09-.04-.15-.11-.2-.19.01-.4.02-.79.04-1.19.56.08.63-.35.76-.73,1.85-5.39,3.69-10.77,5.56-16.15,1.49-4.29,3-8.57,4.5-12.85,1.89-5.41,3.77-10.82,5.66-16.22,2.23-6.38,4.47-12.76,6.71-19.15.05-.14.16-.27.24-.4Z"/>
      <path class="cls-8" d="M90.7,25.99c-.63,4.6-1.79,9.04-4.19,13.06-.73,1.22-1.32,2.56-2.5,3.47-.49-.37-.35-.93-.4-1.42-.23-2.06-.73-4.03-1.61-5.92-.29-.62-.74-1.24-.53-2.01,1.24-.53,1.18-1.83,1.47-2.8,1.51-5.02,2.34-10.19,2.97-15.39.41-3.32.73-6.63.7-9.97.34.18.67.36,1.01.54.9.96.82,2.31,1.34,3.42.02,1.49.92,2.76,1.07,4.23.13,1.29.73,2.51.66,3.84.35.81.16,1.66.21,2.49-.06,2.16.17,4.32-.21,6.47Z"/>
      <path class="cls-5" d="M117.1,129.75c-1.53-.68-2.81-1.72-4.05-2.82.8.16,1.11-.33,1.29-.98l.08.02c.97,1.21,1.98,2.38,2.68,3.78Z"/>
      <path class="cls-1" d="M113.9,125.28c-1.6-1.17-2.53-2.83-3.3-4.6,1.25,1.43,2.32,2.98,3.3,4.6Z"/>
      <path class="cls-1" d="M107.45,116.39c-1.5-.87-2.18-2.36-2.87-3.84,1.12,1.16,2,2.5,2.87,3.84Z"/>
      <g>
        <polygon class="cls-5" points="110.1 119.98 110.1 119.98 110.1 119.99 110.1 119.98"/>
        <polygon class="cls-5" points="110.6 120.68 110.6 120.68 110.6 120.69 110.6 120.68"/>
      </g>
      <path class="cls-1" d="M109.36,119.04c-.68-.63-1.59-1.09-1.63-2.2.65.66,1.32,1.29,1.63,2.2Z"/>
      <path class="cls-1" d="M110.1,119.99c-.51-.05-.73-.33-.67-.83.31.21.59.44.67.83Z"/>
      <path class="cls-7" d="M108.81,38.21h-.08s-.08,0-.08,0c0-.25.02-.5.03-.75.45.18.57.42.13.75Z"/>
      <path class="cls-1" d="M110.6,120.69c-.5,0-.51-.34-.51-.7.3.14.44.4.51.7Z"/>
      <path class="cls-1" d="M107.73,116.85c-.22-.08-.28-.24-.28-.45.21.08.27.25.28.45Z"/>
      <path class="cls-1" d="M114.25,125.79c-.17-.05-.29-.15-.29-.35.16.06.28.16.29.35Z"/>
      <polygon class="cls-1" points="114.42 125.97 114.34 125.95 114.37 125.92 114.44 125.91 114.42 125.97"/>
      <path class="cls-3" d="M.05,129.82c.07.06.13.13.2.19-.15.03-.24-.01-.2-.19Z"/>
      <path class="cls-3" d="M24.47,130.01c.08-.07.16-.13.23-.2.03.19-.07.23-.23.2Z"/>
      <path class="cls-10" d="M117.14,130.03c0-.08,0-.17,0-.25.16.08.29.15,0,.25Z"/>
      <path class="cls-9" d="M24.78,59.99c5,0,10,.01,15,.03.43,0,.88-.11,1.27.16-.1.14-.24.19-.41.19-5.15-.03-10.3.06-15.45-.05-.16-.02-.32-.04-.48-.05.02-.09.05-.18.07-.28Z"/>
      <path class="cls-4" d="M114.37,125.92c0-.08-.04-.12-.12-.13-.04-.17-.23-.2-.29-.35,0-.06-.01-.12-.07-.16-1.22-1.44-2.24-3.04-3.3-4.6-.27-.16-.31-.48-.5-.7-.23-.27-.55-.47-.67-.83,0-.06-.01-.09-.07-.11-.44-.81-1.23-1.36-1.63-2.2h0c-.18-.08-.12-.33-.28-.44h0c-1.12-1.16-1.94-2.54-2.87-3.84-.11-.21-.21-.44-.35-.63-2.8-3.82-5.61-7.63-8.41-11.45-2.43-3.3-4.85-6.6-7.28-9.91-2.33-3.17-4.64-6.35-6.98-9.55,16.15-5.42,25.26-16.51,27.11-33.47.24-.3.21-.62.14-.95,0-.01.02,0,.03-.03.04-.23.07-.46.11-.69.34-2.33.33-4.66-.01-6.99,0,0,0,0,0,0-.04-.23-.09-.46-.13-.68h0c.05-.26.06-.52-.12-.75-.1-1.06-.09-2.15-.33-3.18-.71-3.01-1.35-6.02-2.49-8.94-1.28-3.27-2.97-6.23-5.08-8.97-3.23-4.18-7.21-7.51-11.82-10.08-.35-.42-.79-.68-1.33-.75.33.84.58,1.72.93,2.55.07.27.13.54.1.83,0,.56.07,1.11.27,1.63.79,2.08,1.12,4.27,1.54,6.43.06.19.14.37.23.55,0,.01,0,.03,0,.04,0,.64,0,1.27,0,1.91h0c0,1.83,0,3.65,0,5.48-.08.34-.12.69-.26,1.01-.17.49-.27,1-.34,1.51-.74,5.57-2.82,10.59-6.3,15.01-.16.38-.13.78-.16,1.18-.43,6.86-3.8,11.69-10.04,14.53-2.09.95-4.32,1.37-6.57,1.69-.12.07-.24.13-.37.18-.47.11-.95.07-1.43.07-12.77,0-25.55,0-38.32,0-.52,0-1.04.03-1.55-.07-.24-.03-.46.02-.65.19-.57.88-1.01,1.82-1.2,2.86.12.58.61.81,1.04,1.09,1.75,1.11,3.47,2.29,5.13,3.53,6.43,4.8,13.04,9.36,19.56,14.03,6.46,4.63,12.99,9.15,19.39,13.85,4.12,3.02,8.3,5.96,12.46,8.92,7.07,5.01,14.08,10.1,21.16,15.09,3.55,2.51,7.01,5.16,10.71,7.45.75.2,1.27,0,1.43-.83-.01-.11-.02-.23-.04-.34Z"/>
      <path class="cls-4" d="M68.89,42.4c.42,3.49-2.78,6.74-7.18,6.37-2.88-.24-6.1-3.43-5.81-6.73.28-3.17,2.71-6.52,7.16-6.27,2.67.15,6.14,2.3,5.82,6.63Z"/>
    </g>
  </g>
</svg>