<?xml version="1.0" encoding="UTF-8"?>
<svg id="Layer_2" xmlns="http://www.w3.org/2000/svg" xmlns:xlink="http://www.w3.org/1999/xlink" viewBox="0 0 334.89 347.85">
  <defs>
    <style>
      .cls-1 {
        fill: #2c333e;
      }

      .cls-2 {
        fill: url(#New_Gradient_Swatch_1);
        fill-rule: evenodd;
      }

      .cls-3 {
        fill: none;
      }

      .cls-4 {
        fill: #4c4b4f;
      }

      .cls-5 {
        fill: url(#linear-gradient);
      }
    </style>
    <linearGradient id="linear-gradient" x1="63.92" y1="178.83" x2="334.89" y2="178.83" gradientUnits="userSpaceOnUse">
      <stop offset="0" stop-color="#9e4846"/>
      <stop offset=".11" stop-color="#935273"/>
      <stop offset=".22" stop-color="#7762a0"/>
      <stop offset=".48" stop-color="#1e69c4"/>
      <stop offset="1" stop-color="#21a6ce"/>
    </linearGradient>
    <linearGradient id="New_Gradient_Swatch_1" data-name="New Gradient Swatch 1" x1="68.14" y1="151.13" x2="213.6" y2="78.69" gradientUnits="userSpaceOnUse">
      <stop offset="0" stop-color="#439ddf"/>
      <stop offset=".52" stop-color="#4f87ed"/>
      <stop offset=".78" stop-color="#9476c5"/>
      <stop offset=".89" stop-color="#bc688e"/>
      <stop offset="1" stop-color="#d6645d"/>
    </linearGradient>
  </defs>
  <g id="Layer_1-2" data-name="Layer_1">
    <g>
      <g>
        <polygon class="cls-3" points="146.43 219.05 146.34 219.05 146.52 219.17 146.43 219.05"/>
        <polygon class="cls-1" points="244.86 347.85 334.42 347.85 146.52 219.17 244.86 347.85"/>
        <polygon class="cls-1" points="0 347.85 68.06 347.85 68.06 219.05 146.34 219.05 63.92 162.6 0 347.85"/>
      </g>
      <g>
        <path class="cls-3" d="M174.45,64.6c-6.8-1.78-39.54-2.68-58.23-2.68h-48.16v88.68h0s49.95,0,49.95,0c16.31,0,48.16-1.15,55.55-3.44,7.39-2.29,13.97-7.39,19.75-15.29,5.77-7.9,8.66-16.95,8.66-27.14s-2.89-18.35-8.66-25.99c-5.78-7.65-12.07-12.36-18.86-14.14Z"/>
        <path class="cls-1" d="M193.31,78.75c5.77,7.65,8.66,16.31,8.66,25.99,0,0,45.65-23.81,24.85-94.93,0,0,4.24,49.53-33.51,68.93Z"/>
        <path class="cls-4" d="M158.9,0H53.88L0,53.88v293.98l63.92-185.25,4.14-11.99V61.93h48.16c18.69,0,51.43.89,58.23,2.68,6.79,1.78,13.08,6.5,18.86,14.14,37.75-19.4,33.51-68.93,33.51-68.93C209.74,3.27,187.1,0,158.9,0Z"/>
        <path class="cls-5" d="M225.67,194.06c40.26-18.17,60.4-48.14,60.4-89.89,0-21.39-5.61-40.84-16.82-58.32-11.21-17.49-25.36-29.5-42.43-36.03,20.8,71.11-24.85,94.93-24.85,94.93,0,10.19-2.89,19.24-8.66,27.14-5.78,7.9-12.36,13-19.75,15.29-7.39,2.29-39.24,3.44-55.55,3.44h-49.95s-4.14,11.99-4.14,11.99l82.42,56.45h.09l.1.12,187.89,128.68h.47l-109.22-153.79Z"/>
      </g>
      <path class="cls-2" d="M152.37,158.67c4.63,10.56,6.95,21.84,6.95,33.85,0-12.01,2.24-23.29,6.73-33.85,4.63-10.56,10.85-19.75,18.66-27.56,7.81-7.81,17-13.96,27.56-18.44,10.56-4.63,21.85-6.94,33.85-6.94-12,0-23.29-2.24-33.85-6.73-10.56-4.63-19.74-10.85-27.56-18.66-7.81-7.81-14.03-17-18.66-27.56-4.49-10.56-6.73-21.84-6.73-33.85,0,12.01-2.32,23.29-6.95,33.85-4.48,10.56-10.63,19.75-18.44,27.56-7.81,7.81-17,14.03-27.56,18.66-10.56,4.48-21.84,6.73-33.85,6.73,12.01,0,23.29,2.31,33.85,6.94,10.56,4.48,19.75,10.63,27.56,18.44,7.81,7.81,13.96,17,18.44,27.56Z"/>
    </g>
  </g>
</svg>